<svg id="b9f90c2d-e5e0-4e53-9635-d9a6f1c84c2d" data-name="Layer 1" xmlns="http://www.w3.org/2000/svg" viewBox="0 0 423.06 208.04"><defs><style>.fa198e53-ca62-4086-8da1-f18f53ed3275{fill:#1e1e1e;stroke:#ff7a00;}</style></defs><path class="fa198e53-ca62-4086-8da1-f18f53ed3275" d="M292.5,499H109.13a34.93,34.93,0,0,1-6-.27c-5.27-.92-8.11-4.24-8.11-9.58q0-92.88,0-185.78c0-6.94,2.23-11.12,12.25-11.23,24.15-.26,48.3-.09,72.45-.09,43.8,0,87.61.07,131.41-.06,6.17,0,10.07,2,13,7.77,6.51,12.82,13.91,25.19,20.63,37.91,2.47,4.68,6,5.86,10.9,5.84,27-.1,54-.05,80.94-.05q33.72,0,67.45,0c9.48,0,12.9,3.44,12.91,12.95,0,32-.12,63.93.11,95.89,0,6-1.21,10.82-5.34,15.3-8.29,9-16.34,18.16-24.19,27.5-2.86,3.4-6.23,3.92-10.18,3.92q-54.21-.06-108.42,0Z" transform="translate(-94.53 -291.46)"/></svg>