<svg id="ae815061-c85c-4980-984e-6ff03ab6f9b6" data-name="Layer 1" xmlns="http://www.w3.org/2000/svg" viewBox="0 0 1240.6 340.07"><defs><style>.a8ddf675-1bea-4198-bf03-8bd3be498eaa{fill:#1e1e1e;stroke:#ff7a00;}</style></defs><path class="a8ddf675-1bea-4198-bf03-8bd3be498eaa" d="M-305.17,565.52a10,10,0,0,1-8.37-8.36c.1-1.81.28-3.63.28-5.45q0-155.72,0-311.43c0-1.82-.16-3.64-.25-5.47a10.06,10.06,0,0,1,8.37-8.36c2.32.1,4.64.29,7,.29q233,0,466,0c3.14,0,6.28.37,9.42.57l0,.07c.34,1,1.16,1.13,2,1.25,4,4.17,6.07,9.56,8.23,14.7,5.56,13.22,13.34,25.28,19.45,38.21,1.76,3.74,5,5.65,9.27,5.66H911.93c4.37,0,8.77-.31,11.64,4l1.38,1.54,0,.08c.22,3.47.62,6.93.62,10.4q.06,98.3,0,196.6c0,2,.22,3.95.34,5.93l0,0a4.73,4.73,0,0,0-1,3.47v0l-1.08,1.57q-18.55,18.9-37.1,37.79c-4.39,4.48-8.8,8.93-13,13.6-1.53,1.72-3.86,1.75-5.32,3.33-1.81-.08-3.64-.24-5.46-.24H-298.7C-300.86,565.26-303,565.43-305.17,565.52Z" transform="translate(314.04 -225.95)"/></svg>